<svg xmlns="http://www.w3.org/2000/svg" viewBox="0 0 436.42 634.34"><defs><style>.cls-1{fill:#fff;}</style></defs><g id="Calque_2" data-name="Calque 2"><g id="Calque_1-2" data-name="Calque 1"><path class="cls-1" d="M150.23,474.28c-25.63,54.75-25.65,105.24-3.44,121,23.46,16.64,68.23-8,94.93-22.7a255.89,255.89,0,0,0,76.36-64.66c47.49-54.92,62.42-106.8,44.71-126.58-3-3.38-14.27-13.93-48.15-8.11A490.37,490.37,0,0,1,175,422.61a484.33,484.33,0,0,1-75.66,8.25c-11.16.34-60.88-9.39-84.62-49.53C2.34,360.4.93,337.18.27,326.3A147.43,147.43,0,0,1,3,287.78,350.42,350.42,0,0,1,137.85,93.1,336,336,0,0,1,310.51,3.68c5.39-1.63,35.41-10.17,59.16,6.19,27.71,19.09,37,65.29,13.76,106.62A383.57,383.57,0,0,1,347,179.09a383.13,383.13,0,0,1-50.22,57.1,348.16,348.16,0,0,0,37.84-64.67,348.86,348.86,0,0,0,26.82-92.17c1.45-18.9-3.38-27-8.25-31-25.85-20.75-105.91,35-147.21,70.85a438.18,438.18,0,0,0-54.34,56.41A309.77,309.77,0,0,0,80.75,308.42c-.64,7.46-.76,22.49,8.94,33,8.4,9.11,22,12.46,44.8,10.53,56.95-4.83,127.77-38.88,154.7-52.5,6.84-2.58,52.23-18.86,94.24,5.51,41.48,24.06,62.5,77.8,48.84,131.39a300.58,300.58,0,0,1-78.42,121.07c-57,53.33-119.45,69.58-146.52,75-26.89,5.35-47.42-1.38-62.6-8.95-16-8-21.86-16.81-23.39-19.26-6.23-9.94-8.15-22.06-5.44-41.94C120.79,526.34,136.67,495.4,150.23,474.28Z"/></g></g></svg>